<mxfile host="app.diagrams.net" agent="Mozilla/5.0 (Windows NT 10.0; Win64; x64) AppleWebKit/537.36 (KHTML, like Gecko) Chrome/128.0.0.0 Safari/537.36" version="24.7.10">
  <diagram name="Page-1" id="o6-NSdmjWcv1LC73Jg_o">
    <mxGraphModel dx="1674" dy="1146" grid="1" gridSize="10" guides="1" tooltips="1" connect="1" arrows="1" fold="1" page="0" pageScale="1" pageWidth="850" pageHeight="1100" math="0" shadow="0">
      <root>
        <mxCell id="0" />
        <mxCell id="1" parent="0" />
        <mxCell id="6EfnISno3EnkvuIuXx2h-19" value="" style="rounded=1;whiteSpace=wrap;html=1;" parent="1" vertex="1">
          <mxGeometry x="170" y="170" width="640" height="590" as="geometry" />
        </mxCell>
        <mxCell id="6EfnISno3EnkvuIuXx2h-21" value="VPC" style="sketch=0;outlineConnect=0;gradientColor=none;html=1;whiteSpace=wrap;fontSize=12;fontStyle=0;shape=mxgraph.aws4.group;grIcon=mxgraph.aws4.group_vpc;strokeColor=#879196;fillColor=none;verticalAlign=top;align=left;spacingLeft=30;fontColor=#879196;dashed=0;" parent="1" vertex="1">
          <mxGeometry x="200" y="290" width="550" height="320" as="geometry" />
        </mxCell>
        <mxCell id="6EfnISno3EnkvuIuXx2h-1" value="Elastic &amp;amp; Kibana" style="outlineConnect=0;dashed=0;verticalLabelPosition=bottom;verticalAlign=top;align=center;html=1;shape=mxgraph.aws3.traditional_server;fillColor=#dae8fc;strokeColor=#6c8ebf;" parent="1" vertex="1">
          <mxGeometry x="440" y="347" width="46.5" height="63" as="geometry" />
        </mxCell>
        <mxCell id="6EfnISno3EnkvuIuXx2h-24" style="edgeStyle=orthogonalEdgeStyle;rounded=0;orthogonalLoop=1;jettySize=auto;html=1;" parent="1" source="6EfnISno3EnkvuIuXx2h-13" target="6EfnISno3EnkvuIuXx2h-17" edge="1">
          <mxGeometry relative="1" as="geometry" />
        </mxCell>
        <mxCell id="6EfnISno3EnkvuIuXx2h-26" value="Managed" style="edgeLabel;html=1;align=center;verticalAlign=middle;resizable=0;points=[];" parent="6EfnISno3EnkvuIuXx2h-24" vertex="1" connectable="0">
          <mxGeometry x="-0.1582" relative="1" as="geometry">
            <mxPoint y="1" as="offset" />
          </mxGeometry>
        </mxCell>
        <mxCell id="6EfnISno3EnkvuIuXx2h-13" value="Windows Server&lt;div&gt;RDP enabled&lt;/div&gt;" style="outlineConnect=0;dashed=0;verticalLabelPosition=bottom;verticalAlign=top;align=center;html=1;shape=mxgraph.aws3.traditional_server;fillColor=#7D7C7C;gradientColor=none;" parent="1" vertex="1">
          <mxGeometry x="240" y="630" width="46.5" height="63" as="geometry" />
        </mxCell>
        <mxCell id="6EfnISno3EnkvuIuXx2h-25" style="edgeStyle=orthogonalEdgeStyle;rounded=0;orthogonalLoop=1;jettySize=auto;html=1;" parent="1" source="6EfnISno3EnkvuIuXx2h-15" target="6EfnISno3EnkvuIuXx2h-17" edge="1">
          <mxGeometry relative="1" as="geometry" />
        </mxCell>
        <mxCell id="6EfnISno3EnkvuIuXx2h-27" value="Managed" style="edgeLabel;html=1;align=center;verticalAlign=middle;resizable=0;points=[];" parent="6EfnISno3EnkvuIuXx2h-25" vertex="1" connectable="0">
          <mxGeometry x="-0.1134" y="-2" relative="1" as="geometry">
            <mxPoint as="offset" />
          </mxGeometry>
        </mxCell>
        <mxCell id="6EfnISno3EnkvuIuXx2h-15" value="Ubuntu Server&lt;div&gt;SSH enabled&lt;/div&gt;" style="outlineConnect=0;dashed=0;verticalLabelPosition=bottom;verticalAlign=top;align=center;html=1;shape=mxgraph.aws3.traditional_server;fillColor=#7D7C7C;gradientColor=none;" parent="1" vertex="1">
          <mxGeometry x="680" y="630" width="46.5" height="63" as="geometry" />
        </mxCell>
        <mxCell id="6EfnISno3EnkvuIuXx2h-29" style="edgeStyle=orthogonalEdgeStyle;rounded=0;orthogonalLoop=1;jettySize=auto;html=1;fillColor=#fff2cc;strokeColor=#d6b656;dashed=1;dashPattern=12 12;" parent="1" source="6EfnISno3EnkvuIuXx2h-16" target="6EfnISno3EnkvuIuXx2h-1" edge="1">
          <mxGeometry relative="1" as="geometry" />
        </mxCell>
        <mxCell id="6EfnISno3EnkvuIuXx2h-30" value="Alerts/Tickets" style="edgeLabel;html=1;align=center;verticalAlign=middle;resizable=0;points=[];" parent="6EfnISno3EnkvuIuXx2h-29" vertex="1" connectable="0">
          <mxGeometry x="0.1184" y="3" relative="1" as="geometry">
            <mxPoint as="offset" />
          </mxGeometry>
        </mxCell>
        <mxCell id="6EfnISno3EnkvuIuXx2h-16" value="osTicket Server" style="outlineConnect=0;dashed=0;verticalLabelPosition=bottom;verticalAlign=top;align=center;html=1;shape=mxgraph.aws3.traditional_server;fillColor=#e1d5e7;strokeColor=#9673a6;" parent="1" vertex="1">
          <mxGeometry x="670" y="340" width="46.5" height="63" as="geometry" />
        </mxCell>
        <mxCell id="6EfnISno3EnkvuIuXx2h-28" style="edgeStyle=orthogonalEdgeStyle;rounded=0;orthogonalLoop=1;jettySize=auto;html=1;startArrow=classic;startFill=1;fillColor=#ffe6cc;strokeColor=#d79b00;dashed=1;dashPattern=12 12;" parent="1" source="6EfnISno3EnkvuIuXx2h-17" target="6EfnISno3EnkvuIuXx2h-1" edge="1">
          <mxGeometry relative="1" as="geometry" />
        </mxCell>
        <mxCell id="6EfnISno3EnkvuIuXx2h-52" value="Manage Agents" style="edgeLabel;html=1;align=center;verticalAlign=middle;resizable=0;points=[];" parent="6EfnISno3EnkvuIuXx2h-28" vertex="1" connectable="0">
          <mxGeometry x="-0.1552" y="-5" relative="1" as="geometry">
            <mxPoint as="offset" />
          </mxGeometry>
        </mxCell>
        <mxCell id="6EfnISno3EnkvuIuXx2h-17" value="Fleet Servers" style="outlineConnect=0;dashed=0;verticalLabelPosition=bottom;verticalAlign=top;align=center;html=1;shape=mxgraph.aws3.traditional_server;fillColor=#d5e8d4;strokeColor=#82b366;" parent="1" vertex="1">
          <mxGeometry x="451.75" y="500" width="46.5" height="63" as="geometry" />
        </mxCell>
        <mxCell id="6EfnISno3EnkvuIuXx2h-18" value="C2 Server&lt;div&gt;Mythic&lt;/div&gt;" style="outlineConnect=0;dashed=0;verticalLabelPosition=bottom;verticalAlign=top;align=center;html=1;shape=mxgraph.aws3.traditional_server;fillColor=#FF0000;strokeColor=#b85450;" parent="1" vertex="1">
          <mxGeometry x="763.5" y="70" width="46.5" height="63" as="geometry" />
        </mxCell>
        <mxCell id="6EfnISno3EnkvuIuXx2h-20" value="VULTR" style="text;html=1;align=center;verticalAlign=middle;whiteSpace=wrap;rounded=0;" parent="1" vertex="1">
          <mxGeometry x="220" y="190" width="60" height="30" as="geometry" />
        </mxCell>
        <mxCell id="6EfnISno3EnkvuIuXx2h-32" style="rounded=0;orthogonalLoop=1;jettySize=auto;html=1;entryX=0;entryY=0.5;entryDx=0;entryDy=0;entryPerimeter=0;fillColor=#dae8fc;strokeColor=#6c8ebf;dashed=1;dashPattern=12 12;" parent="1" source="6EfnISno3EnkvuIuXx2h-13" target="6EfnISno3EnkvuIuXx2h-1" edge="1">
          <mxGeometry relative="1" as="geometry" />
        </mxCell>
        <mxCell id="6EfnISno3EnkvuIuXx2h-35" value="Forward logs via agent" style="edgeLabel;html=1;align=center;verticalAlign=middle;resizable=0;points=[];" parent="6EfnISno3EnkvuIuXx2h-32" vertex="1" connectable="0">
          <mxGeometry x="0.0401" y="-2" relative="1" as="geometry">
            <mxPoint as="offset" />
          </mxGeometry>
        </mxCell>
        <mxCell id="6EfnISno3EnkvuIuXx2h-33" style="rounded=0;orthogonalLoop=1;jettySize=auto;html=1;entryX=1;entryY=0.5;entryDx=0;entryDy=0;entryPerimeter=0;fillColor=#dae8fc;strokeColor=#6c8ebf;dashed=1;dashPattern=12 12;" parent="1" source="6EfnISno3EnkvuIuXx2h-15" target="6EfnISno3EnkvuIuXx2h-1" edge="1">
          <mxGeometry relative="1" as="geometry" />
        </mxCell>
        <mxCell id="6EfnISno3EnkvuIuXx2h-34" value="Forward logs via agent" style="edgeLabel;html=1;align=center;verticalAlign=middle;resizable=0;points=[];" parent="6EfnISno3EnkvuIuXx2h-33" vertex="1" connectable="0">
          <mxGeometry x="-0.1331" y="-2" relative="1" as="geometry">
            <mxPoint y="1" as="offset" />
          </mxGeometry>
        </mxCell>
        <mxCell id="6EfnISno3EnkvuIuXx2h-36" value="Private Network: 172.31.0.0/24&lt;div&gt;IP Range: 172.31.0.1-254&lt;/div&gt;&lt;div&gt;Subnet Mask: 255.255.255.0&lt;br&gt;&lt;div&gt;&lt;br&gt;&lt;/div&gt;&lt;/div&gt;" style="text;html=1;align=center;verticalAlign=middle;whiteSpace=wrap;rounded=0;" parent="1" vertex="1">
          <mxGeometry x="180" y="380" width="200" height="30" as="geometry" />
        </mxCell>
        <mxCell id="6EfnISno3EnkvuIuXx2h-45" style="edgeStyle=orthogonalEdgeStyle;rounded=0;orthogonalLoop=1;jettySize=auto;html=1;" parent="1" source="6EfnISno3EnkvuIuXx2h-37" target="6EfnISno3EnkvuIuXx2h-21" edge="1">
          <mxGeometry relative="1" as="geometry" />
        </mxCell>
        <mxCell id="6EfnISno3EnkvuIuXx2h-37" value="" style="outlineConnect=0;dashed=0;verticalLabelPosition=bottom;verticalAlign=top;align=center;html=1;shape=mxgraph.aws3.internet_gateway;fillColor=#F58534;gradientColor=none;" parent="1" vertex="1">
          <mxGeometry x="450" y="174" width="50" height="62" as="geometry" />
        </mxCell>
        <mxCell id="6EfnISno3EnkvuIuXx2h-39" value="Internet" style="ellipse;shape=cloud;whiteSpace=wrap;html=1;" parent="1" vertex="1">
          <mxGeometry x="380" y="10" width="120" height="80" as="geometry" />
        </mxCell>
        <mxCell id="6EfnISno3EnkvuIuXx2h-40" style="rounded=0;orthogonalLoop=1;jettySize=auto;html=1;entryX=0.423;entryY=-0.01;entryDx=0;entryDy=0;entryPerimeter=0;" parent="1" source="6EfnISno3EnkvuIuXx2h-39" target="6EfnISno3EnkvuIuXx2h-19" edge="1">
          <mxGeometry relative="1" as="geometry" />
        </mxCell>
        <mxCell id="6EfnISno3EnkvuIuXx2h-46" value="SOC analyst laptop" style="verticalLabelPosition=bottom;html=1;verticalAlign=top;align=center;strokeColor=none;fillColor=#00BEF2;shape=mxgraph.azure.laptop;pointerEvents=1;" parent="1" vertex="1">
          <mxGeometry x="30" y="70" width="100" height="60" as="geometry" />
        </mxCell>
        <mxCell id="6EfnISno3EnkvuIuXx2h-47" style="rounded=0;orthogonalLoop=1;jettySize=auto;html=1;entryX=0.083;entryY=0.625;entryDx=0;entryDy=0;entryPerimeter=0;" parent="1" source="6EfnISno3EnkvuIuXx2h-46" target="6EfnISno3EnkvuIuXx2h-39" edge="1">
          <mxGeometry relative="1" as="geometry" />
        </mxCell>
        <mxCell id="6EfnISno3EnkvuIuXx2h-48" value="Connect to Elastic/Kibana via Web GUI" style="edgeLabel;html=1;align=center;verticalAlign=middle;resizable=0;points=[];" parent="6EfnISno3EnkvuIuXx2h-47" vertex="1" connectable="0">
          <mxGeometry x="-0.3006" y="3" relative="1" as="geometry">
            <mxPoint as="offset" />
          </mxGeometry>
        </mxCell>
        <mxCell id="6EfnISno3EnkvuIuXx2h-49" value="Attack Laptop&lt;div&gt;Kali Linux&lt;/div&gt;" style="verticalLabelPosition=bottom;html=1;verticalAlign=top;align=center;strokeColor=#b85450;fillColor=#CC0000;shape=mxgraph.azure.laptop;pointerEvents=1;" parent="1" vertex="1">
          <mxGeometry x="663.5" y="-70" width="100" height="80" as="geometry" />
        </mxCell>
        <mxCell id="6EfnISno3EnkvuIuXx2h-50" style="rounded=0;orthogonalLoop=1;jettySize=auto;html=1;entryX=0.75;entryY=0.125;entryDx=0;entryDy=0;entryPerimeter=0;" parent="1" source="6EfnISno3EnkvuIuXx2h-49" target="6EfnISno3EnkvuIuXx2h-39" edge="1">
          <mxGeometry relative="1" as="geometry" />
        </mxCell>
        <mxCell id="6EfnISno3EnkvuIuXx2h-51" style="rounded=0;orthogonalLoop=1;jettySize=auto;html=1;entryX=0.96;entryY=0.7;entryDx=0;entryDy=0;entryPerimeter=0;" parent="1" source="6EfnISno3EnkvuIuXx2h-18" target="6EfnISno3EnkvuIuXx2h-39" edge="1">
          <mxGeometry relative="1" as="geometry" />
        </mxCell>
      </root>
    </mxGraphModel>
  </diagram>
</mxfile>
